<svg xmlns="http://www.w3.org/2000/svg" viewBox="0 0 1024 1024">
  <defs>
    <linearGradient id="base" x1="0" y1="0" x2="0" y2="1">
      <stop offset="0" stop-color="#ff8a3c"/>
      <stop offset="1" stop-color="#cf3a00"/>
    </linearGradient>
    <linearGradient id="sheen" x1="0" y1="0" x2="0.4" y2="1">
      <stop offset="0" stop-color="#ffffff" stop-opacity="0.45"/>
      <stop offset="0.5" stop-color="#ffffff" stop-opacity="0.08"/>
      <stop offset="1" stop-color="#ffffff" stop-opacity="0"/>
    </linearGradient>
    <clipPath id="sq"><rect width="1024" height="1024" rx="230"/></clipPath>
    <filter id="soft" x="-15%" y="-15%" width="130%" height="130%">
      <feDropShadow dx="0" dy="18" stdDeviation="30"
                    flood-color="#000000" flood-opacity="0.35"/>
    </filter>
  </defs>
  <!-- artwork inset to 75% of the canvas so the logo fills only ~2/3 of
       rEFInd's selection tile, leaving a wide empty glass border -->
  <g transform="translate(128 128) scale(0.75)">
  <rect width="1024" height="1024" rx="230" fill="url(#base)" filter="url(#soft)"/>
  <path d="M0 0 H1024 L0 1024 Z" fill="url(#sheen)" clip-path="url(#sq)"/>
  <rect x="6" y="6" width="1012" height="1012" rx="224" fill="none"
        stroke="#ffffff" stroke-opacity="0.30" stroke-width="8"
        clip-path="url(#sq)"/>
  <g fill="#fff" transform="translate(93.2,-352.8) scale(0.803)">
    <circle cx="226.58835" cy="1056.07411" r="109.02696"/>
    <circle cx="680.64509" cy="817.00695" r="109.02696"/>
    <circle cx="656.08182" cy="1337.26719" r="109.02696"/>
    <path d="M472.48179,1336.66575a265.525,265.525,0,0,1-181.07121-138.09821,156.94811,156.94811,0,0,1-93.21911,11.45831,354.9352,354.9352,0,0,0,255.53721,214.16456,359.21054,359.21054,0,0,0,77.41948,7.967,156.00315,156.00315,0,0,1-31.92236-91.15471C490.24607,1340.00523,481.27719,1338.548,472.48179,1336.66575Z"/>
    <path d="M807.7978,1297.22089A356.70056,356.70056,0,0,0,825.67268,878.702a157.14405,157.14405,0,0,1-61.30976,71.80309,267.293,267.293,0,0,1-8.73685,265.48842A156.34662,156.34662,0,0,1,807.7978,1297.22089Z"/>
    <path d="M218.17628,899.71905q4.1505-.2277,8.30533-.22553A157.3464,157.3464,0,0,1,309.164,923.039,265.90648,265.90648,0,0,1,523.2722,808.52964a158.08773,158.08773,0,0,1,33.076-88.42024C419.24532,709.25176,286.02405,780.001,218.17628,899.71905Z"/>
  </g>
  </g>
</svg>
